<svg width="30" height="30" viewBox="0 0 30 30" fill="none" xmlns="http://www.w3.org/2000/svg">
<path d="M20 13.75C22.075 13.75 23.7375 12.075 23.7375 10C23.7375 7.925 22.075 6.25 20 6.25C17.925 6.25 16.25 7.925 16.25 10C16.25 12.075 17.925 13.75 20 13.75ZM10 13.75C12.075 13.75 13.7375 12.075 13.7375 10C13.7375 7.925 12.075 6.25 10 6.25C7.925 6.25 6.25 7.925 6.25 10C6.25 12.075 7.925 13.75 10 13.75ZM10 16.25C7.0875 16.25 1.25 17.7125 1.25 20.625V23.75H18.75V20.625C18.75 17.7125 12.9125 16.25 10 16.25ZM20 16.25C19.6375 16.25 19.225 16.275 18.7875 16.3125C20.2375 17.3625 21.25 18.775 21.25 20.625V23.75H28.75V20.625C28.75 17.7125 22.9125 16.25 20 16.25Z" fill="#EDE280"/>
</svg>
